# Wavefront OBJ file automatically generated by Tiled2Unity

# Vertices (Count = 231)
v 0 -0.32 0
v -0.32 -0.32 0
v -0.32 0 0
v 0 0 0
v -0.64 -0.32 0
v -0.64 0 0
v -0.96 -0.32 0
v -0.96 0 0
v -1.28 -0.32 0
v -1.28 0 0
v -1.6 -0.32 0
v -1.6 0 0
v -1.92 -0.32 0
v -1.92 0 0
v -2.24 -0.32 0
v -2.24 0 0
v -2.56 -0.32 0
v -2.56 0 0
v -2.88 -0.32 0
v -2.88 0 0
v -3.2 -0.32 0
v -3.2 0 0
v -3.52 -0.32 0
v -3.52 0 0
v -3.84 -0.32 0
v -3.84 0 0
v -4.16 -0.32 0
v -4.16 0 0
v -4.48 -0.32 0
v -4.48 0 0
v -4.8 -0.32 0
v -4.8 0 0
v -5.12 -0.32 0
v -5.12 0 0
v -5.44 -0.32 0
v -5.44 0 0
v -5.76 -0.32 0
v -5.76 0 0
v -6.08 -0.32 0
v -6.08 0 0
v -6.4 -0.32 0
v -6.4 0 0
v 0 -0.64 0
v -0.32 -0.64 0
v -1.92 -0.64 0
v -2.24 -0.64 0
v -2.56 -0.64 0
v -3.84 -0.64 0
v -4.16 -0.64 0
v -4.48 -0.64 0
v -6.08 -0.64 0
v -6.4 -0.64 0
v 0 -0.96 0
v -0.32 -0.96 0
v -1.92 -0.96 0
v -2.24 -0.96 0
v -2.56 -0.96 0
v -3.84 -0.96 0
v -4.16 -0.96 0
v -4.48 -0.96 0
v -6.08 -0.96 0
v -6.4 -0.96 0
v 0 -1.28 0
v -0.32 -1.28 0
v -0.64 -1.28 0
v -0.64 -0.96 0
v -0.96 -1.28 0
v -0.96 -0.96 0
v -1.28 -1.28 0
v -1.28 -0.96 0
v -1.6 -1.28 0
v -1.6 -0.96 0
v -1.92 -1.28 0
v -2.24 -1.28 0
v -2.56 -1.28 0
v -2.88 -1.28 0
v -2.88 -0.96 0
v -3.2 -1.28 0
v -3.2 -0.96 0
v -3.52 -1.28 0
v -3.52 -0.96 0
v -3.84 -1.28 0
v -4.16 -1.28 0
v -4.48 -1.28 0
v -4.8 -1.28 0
v -4.8 -0.96 0
v -5.12 -1.28 0
v -5.12 -0.96 0
v -5.44 -1.28 0
v -5.44 -0.96 0
v -5.76 -1.28 0
v -5.76 -0.96 0
v -6.08 -1.28 0
v -6.4 -1.28 0
v 0 -1.6 0
v -0.32 -1.6 0
v -0.64 -1.6 0
v -0.96 -1.6 0
v -1.28 -1.6 0
v -1.6 -1.6 0
v -1.92 -1.6 0
v -2.24 -1.6 0
v -2.56 -1.6 0
v -2.88 -1.6 0
v -3.2 -1.6 0
v -3.52 -1.6 0
v -3.84 -1.6 0
v -4.16 -1.6 0
v -4.48 -1.6 0
v -4.8 -1.6 0
v -5.12 -1.6 0
v -5.44 -1.6 0
v -5.76 -1.6 0
v -6.08 -1.6 0
v -6.4 -1.6 0
v 0 -1.92 0
v -0.32 -1.92 0
v -0.64 -1.92 0
v -0.96 -1.92 0
v -1.28 -1.92 0
v -1.6 -1.92 0
v -1.92 -1.92 0
v -2.56 -1.92 0
v -2.88 -1.92 0
v -3.2 -1.92 0
v -3.52 -1.92 0
v -3.84 -1.92 0
v -4.16 -1.92 0
v -4.48 -1.92 0
v -4.8 -1.92 0
v -5.12 -1.92 0
v -5.44 -1.92 0
v -5.76 -1.92 0
v -6.08 -1.92 0
v -6.4 -1.92 0
v 0 -2.24 0
v -0.32 -2.24 0
v -0.64 -2.24 0
v -0.96 -2.24 0
v -1.28 -2.24 0
v -1.6 -2.24 0
v -1.92 -2.24 0
v -2.56 -2.24 0
v -2.88 -2.24 0
v -3.2 -2.24 0
v -3.52 -2.24 0
v -3.84 -2.24 0
v -4.48 -2.24 0
v -4.8 -2.24 0
v -5.12 -2.24 0
v -5.44 -2.24 0
v -5.76 -2.24 0
v -6.08 -2.24 0
v -6.4 -2.24 0
v 0 -2.56 0
v -0.32 -2.56 0
v -0.64 -2.56 0
v -0.96 -2.56 0
v -1.28 -2.56 0
v -1.6 -2.56 0
v -1.92 -2.56 0
v -2.24 -2.56 0
v -2.24 -2.24 0
v -2.56 -2.56 0
v -2.88 -2.56 0
v -3.2 -2.56 0
v -3.52 -2.56 0
v -3.84 -2.56 0
v -4.48 -2.56 0
v -4.8 -2.56 0
v -5.12 -2.56 0
v -5.44 -2.56 0
v -5.76 -2.56 0
v -6.08 -2.56 0
v 0 -2.88 0
v -0.32 -2.88 0
v -0.64 -2.88 0
v -0.96 -2.88 0
v -1.28 -2.88 0
v -1.6 -2.88 0
v -1.92 -2.88 0
v -2.24 -2.88 0
v -2.56 -2.88 0
v -2.88 -2.88 0
v -3.2 -2.88 0
v -3.52 -2.88 0
v -3.84 -2.88 0
v -4.16 -2.88 0
v -4.16 -2.56 0
v -4.48 -2.88 0
v -4.8 -2.88 0
v -5.12 -2.88 0
v -5.44 -2.88 0
v -5.76 -2.88 0
v -6.08 -2.88 0
v 0 -3.2 0
v -0.32 -3.2 0
v -0.64 -3.2 0
v -0.96 -3.2 0
v -1.28 -3.2 0
v -1.6 -3.2 0
v -1.92 -3.2 0
v -2.24 -3.2 0
v -2.56 -3.2 0
v -2.88 -3.2 0
v -3.2 -3.2 0
v -3.52 -3.2 0
v -3.84 -3.2 0
v -4.16 -3.2 0
v -4.48 -3.2 0
v -4.8 -3.2 0
v -5.12 -3.2 0
v -5.44 -3.2 0
v -5.76 -3.2 0
v -6.08 -3.2 0
v -0.64 -0.64 0
v -0.96 -0.64 0
v -1.28 -0.64 0
v -1.6 -0.64 0
v -2.88 -0.64 0
v -3.2 -0.64 0
v -3.52 -0.64 0
v -4.8 -0.64 0
v -5.12 -0.64 0
v -5.44 -0.64 0
v -5.76 -0.64 0
v -2.24 -1.92 0
v -4.16 -2.24 0
v -6.4 -2.56 0
v -6.4 -2.88 0
v -6.4 -3.2 0

# Texture cooridinates (Count = 232)
vt 0.06262207 0.8126221
vt 0.1248779 0.8126221
vt 0.1248779 0.8748779
vt 0.06262207 0.8748779
vt 0.1876221 0.8126221
vt 0.2498779 0.8126221
vt 0.2498779 0.8748779
vt 0.1876221 0.8748779
vt 0.0001220703 0.8126221
vt 0.06237793 0.8126221
vt 0.06237793 0.8748779
vt 0.0001220703 0.8748779
vt 0.2501221 0.8751221
vt 0.3123779 0.8751221
vt 0.3123779 0.9373779
vt 0.2501221 0.9373779
vt 0.1251221 0.8751221
vt 0.1873779 0.8751221
vt 0.1873779 0.9373779
vt 0.1251221 0.9373779
vt 0.0001220703 0.6876221
vt 0.06237793 0.6876221
vt 0.06237793 0.7498779
vt 0.0001220703 0.7498779
vt 0.06262207 0.6876221
vt 0.1248779 0.6876221
vt 0.1248779 0.7498779
vt 0.06262207 0.7498779
vt 0.0001220703 0.7501221
vt 0.06237793 0.7501221
vt 0.06237793 0.8123779
vt 0.0001220703 0.8123779
vt 0.1251221 0.8126221
vt 0.1873779 0.8126221
vt 0.1873779 0.8748779
vt 0.1251221 0.8748779
vt 0.2501221 0.8126221
vt 0.3123779 0.8126221
vt 0.3123779 0.8748779
vt 0.2501221 0.8748779
vt 0.1251221 0.9376221
vt 0.1873779 0.9376221
vt 0.1873779 0.9998779
vt 0.1251221 0.9998779
vt 0.0001220703 0.8751221
vt 0.06237793 0.8751221
vt 0.06237793 0.9373779
vt 0.0001220703 0.9373779
vt 0.06262207 0.8751221
vt 0.1248779 0.8751221
vt 0.1248779 0.9373779
vt 0.06262207 0.9373779
vt 0.1876221 0.9376221
vt 0.2498779 0.9376221
vt 0.2498779 0.9998779
vt 0.1876221 0.9998779
vt 0.7662362 0.5001221
vt 0.824924 0.5001221
vt 0.824924 0.7498779
vt 0.7662362 0.7498779
vt 0.7662362 0.2501221
vt 0.824924 0.2501221
vt 0.824924 0.4998779
vt 0.7662362 0.4998779
vt 0.0001220703 0.5001221
vt 0.05880979 0.5001221
vt 0.05880979 0.7498779
vt 0.7073044 0.5001221
vt 0.7659921 0.5001221
vt 0.7659921 0.7498779
vt 0.7073044 0.7498779
vt 0.0001220703 0.2501221
vt 0.05880979 0.2501221
vt 0.05880979 0.4998779
vt 0.0001220703 0.4998779
vt 0.7073044 0.2501221
vt 0.7659921 0.2501221
vt 0.7659921 0.4998779
vt 0.7073044 0.4998779
vt 0.5001221 0.5626221
vt 0.5623779 0.5626221
vt 0.5623779 0.6248779
vt 0.5001221 0.6248779
vt 0.5001221 0.5001221
vt 0.5623779 0.5001221
vt 0.5623779 0.5623779
vt 0.5001221 0.5623779
vt 0.5626221 0.5626221
vt 0.6248779 0.5626221
vt 0.6248779 0.6248779
vt 0.5626221 0.6248779
vt 0.6251221 0.5626221
vt 0.6873779 0.5626221
vt 0.6873779 0.6248779
vt 0.6251221 0.6248779
vt 0.4376221 0.9376221
vt 0.4998779 0.9376221
vt 0.4998779 0.9998779
vt 0.4376221 0.9998779
vt 0.5001221 0.9376221
vt 0.5623779 0.9376221
vt 0.5623779 0.9998779
vt 0.5001221 0.9998779
vt 0.06262207 0.3126221
vt 0.1248779 0.3126221
vt 0.1248779 0.3748779
vt 0.06262207 0.3748779
vt 0.5001221 0.8751221
vt 0.5623779 0.8751221
vt 0.5623779 0.9373779
vt 0.5001221 0.9373779
vt 0.7501221 0.9376221
vt 0.8123779 0.9376221
vt 0.8123779 0.9998779
vt 0.7501221 0.9998779
vt 0.1251221 0.7501221
vt 0.1873779 0.7501221
vt 0.1873779 0.8123779
vt 0.1251221 0.8123779
vt 0.1876221 0.7501221
vt 0.2498779 0.7501221
vt 0.2498779 0.8123779
vt 0.1876221 0.8123779
vt 0.5626221 0.4376221
vt 0.6248779 0.4376221
vt 0.6248779 0.4998779
vt 0.5626221 0.4998779
vt 0.6251221 0.4376221
vt 0.6873779 0.4376221
vt 0.6873779 0.4998779
vt 0.6251221 0.4998779
vt 0.1876221 0.4376221
vt 0.2498779 0.4376221
vt 0.2498779 0.4998779
vt 0.1876221 0.4998779
vt 0.06237793 0.2501221
vt 0.06237793 0.3123779
vt 0.0001220703 0.3123779
vt 0.06262207 0.2501221
vt 0.1248779 0.2501221
vt 0.1248779 0.3123779
vt 0.06262207 0.3123779
vt 0.2501221 0.5626221
vt 0.3123779 0.5626221
vt 0.3123779 0.6248779
vt 0.2501221 0.6248779
vt 0.7501221 0.8751221
vt 0.8123779 0.8751221
vt 0.8123779 0.9373779
vt 0.7501221 0.9373779
vt 0.1251221 0.6876221
vt 0.1873779 0.6876221
vt 0.1873779 0.7498779
vt 0.1251221 0.7498779
vt 0.1876221 0.6876221
vt 0.2498779 0.6876221
vt 0.2498779 0.7498779
vt 0.1876221 0.7498779
vt 0.6251221 0.3751221
vt 0.6873779 0.3751221
vt 0.6873779 0.4373779
vt 0.6251221 0.4373779
vt 0.6876221 0.3751221
vt 0.7498779 0.3751221
vt 0.7498779 0.4373779
vt 0.6876221 0.4373779
vt 0.1876221 0.3751221
vt 0.2498779 0.3751221
vt 0.2498779 0.4373779
vt 0.1876221 0.4373779
vt 0.0001220703 0.1876221
vt 0.06237793 0.1876221
vt 0.06237793 0.2498779
vt 0.0001220703 0.2498779
vt 0.06262207 0.1876221
vt 0.1248779 0.1876221
vt 0.1248779 0.2498779
vt 0.06262207 0.2498779
vt 0.2501221 0.5001221
vt 0.3123779 0.5001221
vt 0.3123779 0.5623779
vt 0.2501221 0.5623779
vt 0.4376221 0.7501221
vt 0.4998779 0.7501221
vt 0.4998779 0.8123779
vt 0.4376221 0.8123779
vt 0.6251221 0.7501221
vt 0.6873779 0.7501221
vt 0.6873779 0.8123779
vt 0.6251221 0.8123779
vt 0.3751221 0.7501221
vt 0.4373779 0.7501221
vt 0.4373779 0.8123779
vt 0.3751221 0.8123779
vt 0.3751221 0.6876221
vt 0.4373779 0.6876221
vt 0.4373779 0.7498779
vt 0.3751221 0.7498779
vt 0.3751221 0.4376221
vt 0.4373779 0.4376221
vt 0.4373779 0.4998779
vt 0.3751221 0.4998779
vt 0.3751221 0.3751221
vt 0.4373779 0.3751221
vt 0.4373779 0.4373779
vt 0.3751221 0.4373779
vt 0.1998779 0.7501221
vt 0.1998779 0.9998779
vt 0.0001220703 0.9998779
vt 0.2001221 0.7501221
vt 0.3998779 0.7501221
vt 0.3998779 0.9998779
vt 0.2001221 0.9998779
vt 0.1998779 0.5001221
vt 0.1998779 0.7498779
vt 0.2001221 0.5001221
vt 0.3998779 0.5001221
vt 0.3998779 0.7498779
vt 0.2001221 0.7498779
vt 0.1998779 0.2501221
vt 0.1998779 0.4998779
vt 0.2001221 0.2501221
vt 0.3998779 0.2501221
vt 0.3998779 0.4998779
vt 0.2001221 0.4998779
vt 0.6667888 0.923199
vt 0.8332112 0.923199
vt 0.8332112 0.9998779
vt 0.6667888 0.9998779
vt 0.0001220703 0.0001220703
vt 0.9998779 0.0001220703
vt 0.9998779 0.9998779

# Normal
vn 0 0 -1

# Groups (Count = 4)

g mesh_0001
f 1/1/1 2/2/1 3/3/1 4/4/1
f 2/5/1 5/6/1 6/7/1 3/8/1
f 5/5/1 7/6/1 8/7/1 6/8/1
f 7/5/1 9/6/1 10/7/1 8/8/1
f 9/5/1 11/6/1 12/7/1 10/8/1
f 11/5/1 13/6/1 14/7/1 12/8/1
f 13/9/1 15/10/1 16/11/1 14/12/1
f 15/1/1 17/2/1 18/3/1 16/4/1
f 17/5/1 19/6/1 20/7/1 18/8/1
f 19/5/1 21/6/1 22/7/1 20/8/1
f 21/5/1 23/6/1 24/7/1 22/8/1
f 23/5/1 25/6/1 26/7/1 24/8/1
f 25/9/1 27/10/1 28/11/1 26/12/1
f 27/1/1 29/2/1 30/3/1 28/4/1
f 29/5/1 31/6/1 32/7/1 30/8/1
f 31/5/1 33/6/1 34/7/1 32/8/1
f 33/5/1 35/6/1 36/7/1 34/8/1
f 35/5/1 37/6/1 38/7/1 36/8/1
f 37/5/1 39/6/1 40/7/1 38/8/1
f 39/9/1 41/10/1 42/11/1 40/12/1
f 43/13/1 44/14/1 2/15/1 1/16/1
f 45/17/1 46/18/1 15/19/1 13/20/1
f 46/13/1 47/14/1 17/15/1 15/16/1
f 48/17/1 49/18/1 27/19/1 25/20/1
f 49/13/1 50/14/1 29/15/1 27/16/1
f 51/17/1 52/18/1 41/19/1 39/20/1
f 53/13/1 54/14/1 44/15/1 43/16/1
f 55/17/1 56/18/1 46/19/1 45/20/1
f 56/13/1 57/14/1 47/15/1 46/16/1
f 58/17/1 59/18/1 49/19/1 48/20/1
f 59/13/1 60/14/1 50/15/1 49/16/1
f 61/17/1 62/18/1 52/19/1 51/20/1
f 63/13/1 64/14/1 54/15/1 53/16/1
f 64/21/1 65/22/1 66/23/1 54/24/1
f 65/21/1 67/22/1 68/23/1 66/24/1
f 67/21/1 69/22/1 70/23/1 68/24/1
f 69/21/1 71/22/1 72/23/1 70/24/1
f 71/25/1 73/26/1 55/27/1 72/28/1
f 73/17/1 74/18/1 56/19/1 55/20/1
f 74/13/1 75/14/1 57/15/1 56/16/1
f 75/25/1 76/26/1 77/27/1 57/28/1
f 76/25/1 78/26/1 79/27/1 77/28/1
f 78/25/1 80/26/1 81/27/1 79/28/1
f 80/25/1 82/26/1 58/27/1 81/28/1
f 82/17/1 83/18/1 59/19/1 58/20/1
f 83/13/1 84/14/1 60/15/1 59/16/1
f 84/29/1 85/30/1 86/31/1 60/32/1
f 85/29/1 87/30/1 88/31/1 86/32/1
f 87/29/1 89/30/1 90/31/1 88/32/1
f 89/29/1 91/30/1 92/31/1 90/32/1
f 91/29/1 93/30/1 61/31/1 92/32/1
f 93/17/1 94/18/1 62/19/1 61/20/1
f 95/13/1 96/14/1 64/15/1 63/16/1
f 96/21/1 97/22/1 65/23/1 64/24/1
f 97/21/1 98/22/1 67/23/1 65/24/1
f 98/21/1 99/22/1 69/23/1 67/24/1
f 99/21/1 100/22/1 71/23/1 69/24/1
f 100/25/1 101/26/1 73/27/1 71/28/1
f 101/33/1 102/34/1 74/35/1 73/36/1
f 102/37/1 103/38/1 75/39/1 74/40/1
f 103/25/1 104/26/1 76/27/1 75/28/1
f 104/25/1 105/26/1 78/27/1 76/28/1
f 105/25/1 106/26/1 80/27/1 78/28/1
f 106/25/1 107/26/1 82/27/1 80/28/1
f 107/17/1 108/18/1 83/19/1 82/20/1
f 108/13/1 109/14/1 84/15/1 83/16/1
f 109/29/1 110/30/1 85/31/1 84/32/1
f 110/29/1 111/30/1 87/31/1 85/32/1
f 111/29/1 112/30/1 89/31/1 87/32/1
f 112/29/1 113/30/1 91/31/1 89/32/1
f 113/29/1 114/30/1 93/31/1 91/32/1
f 114/17/1 115/18/1 94/19/1 93/20/1
f 116/13/1 117/14/1 96/15/1 95/16/1
f 117/21/1 118/22/1 97/23/1 96/24/1
f 118/21/1 119/22/1 98/23/1 97/24/1
f 119/21/1 120/22/1 99/23/1 98/24/1
f 120/21/1 121/22/1 100/23/1 99/24/1
f 121/25/1 122/26/1 101/27/1 100/28/1
f 123/25/1 124/26/1 104/27/1 103/28/1
f 124/25/1 125/26/1 105/27/1 104/28/1
f 125/25/1 126/26/1 106/27/1 105/28/1
f 126/25/1 127/26/1 107/27/1 106/28/1
f 127/33/1 128/34/1 108/35/1 107/36/1
f 128/37/1 129/38/1 109/39/1 108/40/1
f 129/29/1 130/30/1 110/31/1 109/32/1
f 130/29/1 131/30/1 111/31/1 110/32/1
f 131/29/1 132/30/1 112/31/1 111/32/1
f 132/29/1 133/30/1 113/31/1 112/32/1
f 133/29/1 134/30/1 114/31/1 113/32/1
f 134/17/1 135/18/1 115/19/1 114/20/1
f 136/13/1 137/14/1 117/15/1 116/16/1
f 137/21/1 138/22/1 118/23/1 117/24/1
f 138/21/1 139/22/1 119/23/1 118/24/1
f 139/21/1 140/22/1 120/23/1 119/24/1
f 140/21/1 141/22/1 121/23/1 120/24/1
f 141/25/1 142/26/1 122/27/1 121/28/1
f 143/25/1 144/26/1 124/27/1 123/28/1
f 144/25/1 145/26/1 125/27/1 124/28/1
f 145/25/1 146/26/1 126/27/1 125/28/1
f 146/25/1 147/26/1 127/27/1 126/28/1
f 148/29/1 149/30/1 130/31/1 129/32/1
f 149/29/1 150/30/1 131/31/1 130/32/1
f 150/29/1 151/30/1 132/31/1 131/32/1
f 151/29/1 152/30/1 133/31/1 132/32/1
f 152/41/1 153/42/1 134/43/1 133/44/1
f 153/45/1 154/46/1 135/47/1 134/48/1
f 155/13/1 156/14/1 137/15/1 136/16/1
f 156/25/1 157/26/1 138/27/1 137/28/1
f 157/25/1 158/26/1 139/27/1 138/28/1
f 158/25/1 159/26/1 140/27/1 139/28/1
f 159/25/1 160/26/1 141/27/1 140/28/1
f 160/25/1 161/26/1 142/27/1 141/28/1
f 161/25/1 162/26/1 163/27/1 142/28/1
f 162/25/1 164/26/1 143/27/1 163/28/1
f 164/25/1 165/26/1 144/27/1 143/28/1
f 165/25/1 166/26/1 145/27/1 144/28/1
f 166/25/1 167/26/1 146/27/1 145/28/1
f 167/25/1 168/26/1 147/27/1 146/28/1
f 169/25/1 170/26/1 149/27/1 148/28/1
f 170/25/1 171/26/1 150/27/1 149/28/1
f 171/25/1 172/26/1 151/27/1 150/28/1
f 172/25/1 173/26/1 152/27/1 151/28/1
f 173/17/1 174/18/1 153/19/1 152/20/1
f 175/13/1 176/14/1 156/15/1 155/16/1
f 176/25/1 177/26/1 157/27/1 156/28/1
f 177/25/1 178/26/1 158/27/1 157/28/1
f 178/25/1 179/26/1 159/27/1 158/28/1
f 179/25/1 180/26/1 160/27/1 159/28/1
f 180/25/1 181/26/1 161/27/1 160/28/1
f 181/25/1 182/26/1 162/27/1 161/28/1
f 182/25/1 183/26/1 164/27/1 162/28/1
f 183/25/1 184/26/1 165/27/1 164/28/1
f 184/25/1 185/26/1 166/27/1 165/28/1
f 185/25/1 186/26/1 167/27/1 166/28/1
f 186/25/1 187/26/1 168/27/1 167/28/1
f 187/25/1 188/26/1 189/27/1 168/28/1
f 188/25/1 190/26/1 169/27/1 189/28/1
f 190/25/1 191/26/1 170/27/1 169/28/1
f 191/25/1 192/26/1 171/27/1 170/28/1
f 192/25/1 193/26/1 172/27/1 171/28/1
f 193/25/1 194/26/1 173/27/1 172/28/1
f 194/17/1 195/18/1 174/19/1 173/20/1
f 196/49/1 197/50/1 176/51/1 175/52/1
f 197/53/1 198/54/1 177/55/1 176/56/1
f 198/53/1 199/54/1 178/55/1 177/56/1
f 199/53/1 200/54/1 179/55/1 178/56/1
f 200/53/1 201/54/1 180/55/1 179/56/1
f 201/53/1 202/54/1 181/55/1 180/56/1
f 202/25/1 203/26/1 182/27/1 181/28/1
f 203/25/1 204/26/1 183/27/1 182/28/1
f 204/53/1 205/54/1 184/55/1 183/56/1
f 205/53/1 206/54/1 185/55/1 184/56/1
f 206/53/1 207/54/1 186/55/1 185/56/1
f 207/53/1 208/54/1 187/55/1 186/56/1
f 208/53/1 209/54/1 188/55/1 187/56/1
f 209/53/1 210/54/1 190/55/1 188/56/1
f 210/53/1 211/54/1 191/55/1 190/56/1
f 211/53/1 212/54/1 192/55/1 191/56/1
f 212/53/1 213/54/1 193/55/1 192/56/1
f 213/53/1 214/54/1 194/55/1 193/56/1
f 214/45/1 215/46/1 195/47/1 194/48/1

g mesh_0002
f 44/57/1 216/58/1 5/59/1 2/60/1
f 216/57/1 217/58/1 7/59/1 5/60/1
f 217/57/1 218/58/1 9/59/1 7/60/1
f 218/57/1 219/58/1 11/59/1 9/60/1
f 219/57/1 45/58/1 13/59/1 11/60/1
f 47/57/1 220/58/1 19/59/1 17/60/1
f 220/57/1 221/58/1 21/59/1 19/60/1
f 221/57/1 222/58/1 23/59/1 21/60/1
f 222/57/1 48/58/1 25/59/1 23/60/1
f 50/57/1 223/58/1 31/59/1 29/60/1
f 223/57/1 224/58/1 33/59/1 31/60/1
f 224/57/1 225/58/1 35/59/1 33/60/1
f 225/57/1 226/58/1 37/59/1 35/60/1
f 226/57/1 51/58/1 39/59/1 37/60/1
f 54/61/1 66/62/1 216/63/1 44/64/1
f 66/61/1 68/62/1 217/63/1 216/64/1
f 68/61/1 70/62/1 218/63/1 217/64/1
f 70/61/1 72/62/1 219/63/1 218/64/1
f 72/61/1 55/62/1 45/63/1 219/64/1
f 57/61/1 77/62/1 220/63/1 47/64/1
f 77/61/1 79/62/1 221/63/1 220/64/1
f 79/61/1 81/62/1 222/63/1 221/64/1
f 81/61/1 58/62/1 48/63/1 222/64/1
f 60/61/1 86/62/1 223/63/1 50/64/1
f 86/61/1 88/62/1 224/63/1 223/64/1
f 88/61/1 90/62/1 225/63/1 224/64/1
f 90/61/1 92/62/1 226/63/1 225/64/1
f 92/61/1 61/62/1 51/63/1 226/64/1
f 122/57/1 227/58/1 102/59/1 101/60/1
f 227/57/1 123/58/1 103/59/1 102/60/1
f 142/61/1 163/62/1 227/63/1 122/64/1
f 163/61/1 143/62/1 123/63/1 227/64/1
f 147/57/1 228/58/1 128/59/1 127/60/1
f 228/57/1 148/58/1 129/59/1 128/60/1
f 168/57/1 189/58/1 228/59/1 147/60/1
f 189/57/1 169/58/1 148/59/1 228/60/1

g mesh_0003
f 44/65/1 216/66/1 5/67/1 2/24/1
f 47/65/1 220/66/1 19/67/1 17/24/1
f 222/68/1 48/69/1 25/70/1 23/71/1
f 50/65/1 223/66/1 31/67/1 29/24/1
f 54/72/1 66/73/1 216/74/1 44/75/1
f 72/76/1 55/77/1 45/78/1 219/79/1
f 57/72/1 77/73/1 220/74/1 47/75/1
f 81/76/1 58/77/1 48/78/1 222/79/1
f 60/72/1 86/73/1 223/74/1 50/75/1
f 92/76/1 61/77/1 51/78/1 226/79/1
f 122/65/1 227/66/1 102/67/1 101/24/1
f 227/68/1 123/69/1 103/70/1 102/71/1
f 142/72/1 163/73/1 227/74/1 122/75/1
f 163/76/1 143/77/1 123/78/1 227/79/1
f 147/65/1 228/66/1 128/67/1 127/24/1
f 228/68/1 148/69/1 129/70/1 128/71/1
f 168/72/1 189/73/1 228/74/1 147/75/1
f 189/76/1 169/77/1 148/78/1 228/79/1

g mesh_0004
f 9/80/1 11/81/1 12/82/1 10/83/1
f 11/84/1 13/85/1 14/86/1 12/87/1
f 218/88/1 219/89/1 11/90/1 9/91/1
f 219/92/1 45/93/1 13/94/1 11/95/1
f 220/96/1 221/97/1 21/98/1 19/99/1
f 221/100/1 222/101/1 23/102/1 21/103/1
f 224/104/1 225/105/1 35/106/1 33/107/1
f 225/108/1 226/109/1 37/110/1 35/111/1
f 226/108/1 51/109/1 39/110/1 37/111/1
f 54/112/1 66/113/1 216/114/1 44/115/1
f 66/116/1 68/117/1 217/118/1 216/119/1
f 68/120/1 70/121/1 218/122/1 217/123/1
f 70/124/1 72/125/1 219/126/1 218/127/1
f 72/128/1 55/129/1 45/130/1 219/131/1
f 57/132/1 77/133/1 220/134/1 47/135/1
f 77/72/1 79/136/1 221/137/1 220/138/1
f 79/139/1 81/140/1 222/141/1 221/142/1
f 81/132/1 58/133/1 48/134/1 222/135/1
f 86/143/1 88/144/1 224/145/1 223/146/1
f 88/143/1 90/144/1 225/145/1 224/146/1
f 64/147/1 65/148/1 66/149/1 54/150/1
f 65/151/1 67/152/1 68/153/1 66/154/1
f 67/155/1 69/156/1 70/157/1 68/158/1
f 69/159/1 71/160/1 72/161/1 70/162/1
f 71/163/1 73/164/1 55/165/1 72/166/1
f 75/167/1 76/168/1 77/169/1 57/170/1
f 76/171/1 78/172/1 79/173/1 77/174/1
f 78/175/1 80/176/1 81/177/1 79/178/1
f 80/167/1 82/168/1 58/169/1 81/170/1
f 85/179/1 87/180/1 88/181/1 86/182/1
f 87/179/1 89/180/1 90/181/1 88/182/1
f 100/21/1 101/22/1 73/23/1 71/24/1
f 121/21/1 122/22/1 101/23/1 100/24/1
f 122/183/1 227/184/1 102/185/1 101/186/1
f 227/187/1 123/188/1 103/189/1 102/190/1
f 126/191/1 127/192/1 107/193/1 106/194/1
f 141/21/1 142/22/1 122/23/1 121/24/1
f 146/195/1 147/196/1 127/197/1 126/198/1
f 147/199/1 228/200/1 128/201/1 127/202/1
f 228/199/1 148/200/1 129/201/1 128/202/1
f 168/203/1 189/204/1 228/205/1 147/206/1
f 189/203/1 169/204/1 148/205/1 228/206/1

g mesh_0005
f 90/29/1 92/207/1 226/208/1 225/209/1
f 92/210/1 61/211/1 51/212/1 226/213/1
f 89/65/1 91/214/1 92/215/1 90/24/1
f 91/216/1 93/217/1 61/218/1 92/219/1
f 112/72/1 113/220/1 91/221/1 89/75/1
f 113/222/1 114/223/1 93/224/1 91/225/1

g mesh_0006
f 202/226/1 203/227/1 182/228/1 181/229/1
f 203/226/1 204/227/1 183/228/1 182/229/1

g mesh_0007
f 1/230/1 2/231/1 3/232/1 4/209/1
f 2/230/1 5/231/1 6/232/1 3/209/1
f 5/230/1 7/231/1 8/232/1 6/209/1
f 7/230/1 9/231/1 10/232/1 8/209/1
f 9/230/1 11/231/1 12/232/1 10/209/1
f 11/230/1 13/231/1 14/232/1 12/209/1
f 13/230/1 15/231/1 16/232/1 14/209/1
f 15/230/1 17/231/1 18/232/1 16/209/1
f 17/230/1 19/231/1 20/232/1 18/209/1
f 19/230/1 21/231/1 22/232/1 20/209/1
f 21/230/1 23/231/1 24/232/1 22/209/1
f 23/230/1 25/231/1 26/232/1 24/209/1
f 25/230/1 27/231/1 28/232/1 26/209/1
f 27/230/1 29/231/1 30/232/1 28/209/1
f 29/230/1 31/231/1 32/232/1 30/209/1
f 31/230/1 33/231/1 34/232/1 32/209/1
f 33/230/1 35/231/1 36/232/1 34/209/1
f 35/230/1 37/231/1 38/232/1 36/209/1
f 37/230/1 39/231/1 40/232/1 38/209/1
f 39/230/1 41/231/1 42/232/1 40/209/1
f 43/230/1 44/231/1 2/232/1 1/209/1
f 44/230/1 216/231/1 5/232/1 2/209/1
f 216/230/1 217/231/1 7/232/1 5/209/1
f 217/230/1 218/231/1 9/232/1 7/209/1
f 218/230/1 219/231/1 11/232/1 9/209/1
f 219/230/1 45/231/1 13/232/1 11/209/1
f 45/230/1 46/231/1 15/232/1 13/209/1
f 46/230/1 47/231/1 17/232/1 15/209/1
f 47/230/1 220/231/1 19/232/1 17/209/1
f 220/230/1 221/231/1 21/232/1 19/209/1
f 221/230/1 222/231/1 23/232/1 21/209/1
f 222/230/1 48/231/1 25/232/1 23/209/1
f 48/230/1 49/231/1 27/232/1 25/209/1
f 49/230/1 50/231/1 29/232/1 27/209/1
f 50/230/1 223/231/1 31/232/1 29/209/1
f 223/230/1 224/231/1 33/232/1 31/209/1
f 224/230/1 225/231/1 35/232/1 33/209/1
f 225/230/1 226/231/1 37/232/1 35/209/1
f 226/230/1 51/231/1 39/232/1 37/209/1
f 51/230/1 52/231/1 41/232/1 39/209/1
f 53/230/1 54/231/1 44/232/1 43/209/1
f 54/230/1 66/231/1 216/232/1 44/209/1
f 66/230/1 68/231/1 217/232/1 216/209/1
f 68/230/1 70/231/1 218/232/1 217/209/1
f 70/230/1 72/231/1 219/232/1 218/209/1
f 72/230/1 55/231/1 45/232/1 219/209/1
f 55/230/1 56/231/1 46/232/1 45/209/1
f 56/230/1 57/231/1 47/232/1 46/209/1
f 57/230/1 77/231/1 220/232/1 47/209/1
f 77/230/1 79/231/1 221/232/1 220/209/1
f 79/230/1 81/231/1 222/232/1 221/209/1
f 81/230/1 58/231/1 48/232/1 222/209/1
f 58/230/1 59/231/1 49/232/1 48/209/1
f 59/230/1 60/231/1 50/232/1 49/209/1
f 60/230/1 86/231/1 223/232/1 50/209/1
f 86/230/1 88/231/1 224/232/1 223/209/1
f 88/230/1 90/231/1 225/232/1 224/209/1
f 90/230/1 92/231/1 226/232/1 225/209/1
f 92/230/1 61/231/1 51/232/1 226/209/1
f 61/230/1 62/231/1 52/232/1 51/209/1
f 63/230/1 64/231/1 54/232/1 53/209/1
f 64/230/1 65/231/1 66/232/1 54/209/1
f 65/230/1 67/231/1 68/232/1 66/209/1
f 67/230/1 69/231/1 70/232/1 68/209/1
f 69/230/1 71/231/1 72/232/1 70/209/1
f 71/230/1 73/231/1 55/232/1 72/209/1
f 73/230/1 74/231/1 56/232/1 55/209/1
f 74/230/1 75/231/1 57/232/1 56/209/1
f 75/230/1 76/231/1 77/232/1 57/209/1
f 76/230/1 78/231/1 79/232/1 77/209/1
f 78/230/1 80/231/1 81/232/1 79/209/1
f 80/230/1 82/231/1 58/232/1 81/209/1
f 82/230/1 83/231/1 59/232/1 58/209/1
f 83/230/1 84/231/1 60/232/1 59/209/1
f 85/230/1 87/231/1 88/232/1 86/209/1
f 87/230/1 89/231/1 90/232/1 88/209/1
f 89/230/1 91/231/1 92/232/1 90/209/1
f 91/230/1 93/231/1 61/232/1 92/209/1
f 93/230/1 94/231/1 62/232/1 61/209/1
f 95/230/1 96/231/1 64/232/1 63/209/1
f 101/230/1 102/231/1 74/232/1 73/209/1
f 102/230/1 103/231/1 75/232/1 74/209/1
f 107/230/1 108/231/1 83/232/1 82/209/1
f 108/230/1 109/231/1 84/232/1 83/209/1
f 112/230/1 113/231/1 91/232/1 89/209/1
f 113/230/1 114/231/1 93/232/1 91/209/1
f 114/230/1 115/231/1 94/232/1 93/209/1
f 116/230/1 117/231/1 96/232/1 95/209/1
f 122/230/1 227/231/1 102/232/1 101/209/1
f 227/230/1 123/231/1 103/232/1 102/209/1
f 126/230/1 127/231/1 107/232/1 106/209/1
f 127/230/1 128/231/1 108/232/1 107/209/1
f 128/230/1 129/231/1 109/232/1 108/209/1
f 134/230/1 135/231/1 115/232/1 114/209/1
f 136/230/1 137/231/1 117/232/1 116/209/1
f 142/230/1 163/231/1 227/232/1 122/209/1
f 163/230/1 143/231/1 123/232/1 227/209/1
f 146/230/1 147/231/1 127/232/1 126/209/1
f 147/230/1 228/231/1 128/232/1 127/209/1
f 228/230/1 148/231/1 129/232/1 128/209/1
f 152/230/1 153/231/1 134/232/1 133/209/1
f 153/230/1 154/231/1 135/232/1 134/209/1
f 155/230/1 156/231/1 137/232/1 136/209/1
f 168/230/1 189/231/1 228/232/1 147/209/1
f 189/230/1 169/231/1 148/232/1 228/209/1
f 173/230/1 174/231/1 153/232/1 152/209/1
f 174/230/1 229/231/1 154/232/1 153/209/1
f 175/230/1 176/231/1 156/232/1 155/209/1
f 194/230/1 195/231/1 174/232/1 173/209/1
f 195/230/1 230/231/1 229/232/1 174/209/1
f 196/230/1 197/231/1 176/232/1 175/209/1
f 197/230/1 198/231/1 177/232/1 176/209/1
f 198/230/1 199/231/1 178/232/1 177/209/1
f 199/230/1 200/231/1 179/232/1 178/209/1
f 200/230/1 201/231/1 180/232/1 179/209/1
f 201/230/1 202/231/1 181/232/1 180/209/1
f 204/230/1 205/231/1 184/232/1 183/209/1
f 205/230/1 206/231/1 185/232/1 184/209/1
f 206/230/1 207/231/1 186/232/1 185/209/1
f 207/230/1 208/231/1 187/232/1 186/209/1
f 208/230/1 209/231/1 188/232/1 187/209/1
f 209/230/1 210/231/1 190/232/1 188/209/1
f 210/230/1 211/231/1 191/232/1 190/209/1
f 211/230/1 212/231/1 192/232/1 191/209/1
f 212/230/1 213/231/1 193/232/1 192/209/1
f 213/230/1 214/231/1 194/232/1 193/209/1
f 214/230/1 215/231/1 195/232/1 194/209/1
f 215/230/1 231/231/1 230/232/1 195/209/1

